<svg xmlns="http://www.w3.org/2000/svg" viewBox="0 0 512 512" width="512" height="512">
  <defs>
    <radialGradient id="obsidianBg" cx="50%" cy="50%" r="50%"><stop offset="0%" stop-color="#1a1c23" /><stop offset="100%" stop-color="#0b0c10" /></radialGradient>
    <linearGradient id="gitStream" x1="0%" y1="0%" x2="100%" y2="100%"><stop offset="0%" stop-color="#a855f7" /><stop offset="100%" stop-color="#3b82f6" /></linearGradient>
  </defs>
  <rect width="512" height="512" rx="112" fill="url(#obsidianBg)" stroke="#262930" stroke-width="4"/>
  <circle cx="256" cy="230" r="150" fill="none" stroke="#1f222a" stroke-width="12" />
  <circle cx="256" cy="230" r="135" fill="none" stroke="#2e333f" stroke-width="2" stroke-dasharray="4 8" opacity="0.6"/>
  <line x1="256" y1="65" x2="256" y2="75" stroke="#4b5563" stroke-width="4" stroke-linecap="round"/>
  <line x1="256" y1="385" x2="256" y2="375" stroke="#4b5563" stroke-width="4" stroke-linecap="round"/>
  <line x1="256" y1="120" x2="256" y2="300" stroke="url(#gitStream)" stroke-width="10" stroke-linecap="round"/>
  <path d="M 256,160 Q 200,190 200,230" fill="none" stroke="#a855f7" stroke-width="8" stroke-linecap="round"/>
  <path d="M 256,140 Q 312,170 312,220" fill="none" stroke="#3b82f6" stroke-width="8" stroke-linecap="round"/>
  <circle cx="256" cy="130" r="12" fill="#0b0c10" stroke="#a855f7" stroke-width="6" />
  <circle cx="200" cy="230" r="10" fill="#0b0c10" stroke="#a855f7" stroke-width="5" />
  <circle cx="312" cy="220" r="10" fill="#0b0c10" stroke="#3b82f6" stroke-width="5" />
  <path d="M 226,280 L 256,315 L 286,280" fill="none" stroke="url(#gitStream)" stroke-width="10" stroke-linecap="round" stroke-linejoin="round"/>
  <text x="256" y="435" font-family="Arial" font-weight="bold" font-size="42" fill="#ffffff" text-anchor="middle" letter-spacing="2">GitGet</text>
  <text x="256" y="465" font-family="Arial" font-weight="bold" font-size="14" fill="#9ca3af" text-anchor="middle" letter-spacing="4" opacity="0.8">OBSIDIAN WATCH GROUP</text>
</svg>
